<svg xmlns="http://www.w3.org/2000/svg" width="22" height="27" viewBox="0 0 22 27">
  <g fill="#000" fill-rule="evenodd">
    <path d="M10.267.733v12.284a.734.734 0 0 0 1.466 0V.733a.734.734 0 0 0-1.466 0"/>
    <path
      d="M13.2 5.203c0 .332.225.612.543.708a9.509 9.509 0 0 1 6.79 9.122 9.498 9.498 0 0 1-2.792 6.742A9.497 9.497 0 0 1 11 24.567a9.497 9.497 0 0 1-6.74-2.792 9.498 9.498 0 0 1-2.793-6.742 9.509 9.509 0 0 1 6.79-9.123.743.743 0 0 0 .543-.707.743.743 0 0 0-.96-.708C3.305 5.853 0 10.056 0 15.033c0 6.076 4.924 11 11 11s11-4.924 11-11c0-4.976-3.305-9.18-7.84-10.538a.743.743 0 0 0-.96.708"/>
  </g>
</svg>
