<svg xmlns="http://www.w3.org/2000/svg" width="14" height="21" viewBox="0 0 14 21">
  <path fill="#6A7882" fill-rule="evenodd"
        d="M7 16.472a.412.412 0 0 1-.412-.412v-3.294a.412.412 0 0 1 .824 0v3.294a.412.412 0 0 1-.412.412zm0-9.06c-3.404 0-6.164 2.765-6.164 6.176C.836 17 3.596 19.765 7 19.765s6.163-2.765 6.163-6.177c0-3.41-2.76-6.176-6.163-6.176zm4.53-2.057a4.53 4.53 0 0 0-9.06 0v2.902A6.972 6.972 0 0 1 7 6.589c1.729 0 3.308.63 4.53 1.668V5.355zM7 20.589a7 7 0 0 1-7-7c0-1.724.625-3.3 1.658-4.519V5.37c0-2.966 2.391-5.37 5.341-5.37 2.951 0 5.343 2.404 5.343 5.37V9.07A6.972 6.972 0 0 1 14 13.59a7 7 0 0 1-7 7z"/>
</svg>
