<?xml version="1.0" encoding="UTF-8"?>
<svg width="28px" height="28px" viewBox="0 0 28 28" version="1.1" xmlns="http://www.w3.org/2000/svg"
     xmlns:xlink="http://www.w3.org/1999/xlink">
  <!-- Generator: Sketch 45.2 (43514) - http://www.bohemiancoding.com/sketch -->
  <title>IconUsername</title>
  <desc>Created with Sketch.</desc>
  <defs></defs>
  <g id="Page-1" stroke="none" stroke-width="1" fill="none" fill-rule="evenodd">
    <g id="Login" transform="translate(-575.000000, -395.000000)">
      <g id="LoginBox" transform="translate(539.000000, 284.000000)">
        <g id="Username" transform="translate(29.000000, 106.000000)">
          <g id="IconUsername" transform="translate(7.000000, 5.000000)">
            <rect id="Rectangle" fill="#FFFFFF" x="0" y="0" width="28" height="28"></rect>
            <path
              d="M18.6315789,10.4728421 C18.6315789,7.91536842 16.5583158,5.84042105 14,5.84042105 C11.4416842,5.84042105 9.36842105,7.91536842 9.36842105,10.4728421 C9.36842105,13.0311579 11.4416842,15.1044211 14,15.1044211 C16.5583158,15.1044211 18.6315789,13.0311579 18.6315789,10.4728421 L18.6315789,10.4728421 Z M21.1368421,23.5254737 C21.1452632,23.3856842 21.1578947,23.2467368 21.1578947,23.1052632 C21.1578947,19.1515789 17.9528421,15.9465263 14,15.9465263 C10.0471579,15.9465263 6.84210526,19.1515789 6.84210526,23.1052632 C6.84210526,23.2467368 6.85557895,23.3856842 6.86315789,23.5254737 L6.02105263,23.5254737 C6.01431579,23.3848421 6,23.2467368 6,23.1052632 C6,19.4816842 8.40926316,16.4248421 11.712,15.4404211 C9.83326316,14.5738947 8.52631579,12.6783158 8.52631579,10.4728421 C8.52631579,7.44968421 10.9768421,5 14,5 C17.0231579,5 19.4736842,7.44968421 19.4736842,10.4728421 C19.4736842,12.6783158 18.1667368,14.5738947 16.288,15.4404211 C19.5907368,16.4248421 22,19.4816842 22,23.1052632 C22,23.2467368 21.9865263,23.3848421 21.9789474,23.5254737 L21.1368421,23.5254737 Z"
              id="iconUsername" fill="#2F313F"></path>
          </g>
        </g>
      </g>
    </g>
  </g>
</svg>